ply
format ascii 1.0
comment Converted from VTK unstructured grid (tets) bubble.vtk
element vertex 67
property float x
property float y
property float z
element face 80
property list uchar int vertex_indices
end_header
0.00000000 0.00000000 0.00000000
0.05700000 0.00000000 0.00000000
0.00000000 0.04050000 0.00000000
-0.05700000 0.00000000 0.00000000
0.00000000 -0.04050000 0.00000000
0.00000000 0.00000000 -0.03700000
0.04030509 0.02863782 0.00000000
-0.04030509 0.02863782 0.00000000
-0.04030509 -0.02863782 0.00000000
0.04030509 -0.02863782 0.00000000
0.00000000 0.02863782 -0.02616295
0.04030509 0.00000000 -0.02616295
-0.04030509 0.00000000 -0.02616295
0.00000000 -0.02863782 -0.02616295
0.05266113 0.01549868 0.00000000
0.02181296 0.03741712 0.00000000
-0.02181296 0.03741712 0.00000000
-0.05266113 0.01549868 0.00000000
-0.05266113 -0.01549868 0.00000000
-0.02181296 -0.03741712 0.00000000
0.02181296 -0.03741712 0.00000000
0.05266113 -0.01549868 0.00000000
0.00000000 0.03741712 -0.01415929
0.02327015 0.03306811 -0.01510519
0.02181296 0.00000000 -0.03418354
0.00000000 0.01549868 -0.03418354
0.02327015 0.01653406 -0.03021037
0.05266113 0.00000000 -0.01415929
0.04654031 0.01653406 -0.01510519
-0.05266113 0.00000000 -0.01415929
-0.04654031 0.01653406 -0.01510519
-0.02181296 0.00000000 -0.03418354
-0.02327015 0.01653406 -0.03021037
-0.02327015 0.03306811 -0.01510519
0.00000000 -0.03741712 -0.01415929
-0.02327015 -0.03306811 -0.01510519
0.00000000 -0.01549868 -0.03418354
-0.02327015 -0.01653406 -0.03021037
-0.04654031 -0.01653406 -0.01510519
0.04654031 -0.01653406 -0.01510519
0.02327015 -0.01653406 -0.03021037
0.02327015 -0.03306811 -0.01510519
0.00000000 0.00000000 -0.01850000
0.00000000 0.01431891 -0.01308148
0.02015255 0.00000000 -0.01308148
-0.02015255 0.00000000 -0.01308148
0.00000000 -0.01431891 -0.01308148
0.00000000 0.01870856 -0.00707964
0.01163507 0.01653405 -0.00755259
0.01090648 0.00000000 -0.01709177
0.00000000 0.00774934 -0.01709177
0.01163507 0.00826703 -0.01510519
0.02633057 0.00000000 -0.00707964
0.02327016 0.00826703 -0.00755259
-0.02633057 0.00000000 -0.00707964
-0.02327016 0.00826703 -0.00755259
-0.01090648 0.00000000 -0.01709177
-0.01163507 0.00826703 -0.01510519
-0.01163507 0.01653405 -0.00755259
0.00000000 -0.01870856 -0.00707964
-0.01163507 -0.01653405 -0.00755259
0.00000000 -0.00774934 -0.01709177
-0.01163507 -0.00826703 -0.01510519
-0.02327016 -0.00826703 -0.00755259
0.02327016 -0.00826703 -0.00755259
0.01163507 -0.00826703 -0.01510519
0.01163507 -0.01653405 -0.00755259
3 2 22 15
3 10 23 22
3 6 15 23
3 22 23 15
3 5 24 25
3 11 26 24
3 10 25 26
3 24 26 25
3 1 14 27
3 6 28 14
3 11 27 28
3 14 28 27
3 10 26 23
3 11 28 26
3 6 23 28
3 26 28 23
3 3 29 17
3 12 30 29
3 7 17 30
3 29 30 17
3 5 25 31
3 10 32 25
3 12 31 32
3 25 32 31
3 2 16 22
3 7 33 16
3 10 22 33
3 16 33 22
3 12 32 30
3 10 33 32
3 7 30 33
3 32 33 30
3 4 34 19
3 13 35 34
3 8 19 35
3 34 35 19
3 5 31 36
3 12 37 31
3 13 36 37
3 31 37 36
3 3 18 29
3 8 38 18
3 12 29 38
3 18 38 29
3 13 37 35
3 12 38 37
3 8 35 38
3 37 38 35
3 1 27 21
3 11 39 27
3 9 21 39
3 27 39 21
3 5 36 24
3 13 40 36
3 11 24 40
3 36 40 24
3 4 20 34
3 9 41 20
3 13 34 41
3 20 41 34
3 11 40 39
3 13 41 40
3 9 39 41
3 40 41 39
3 2 15 0
3 2 16 0
3 6 15 0
3 1 14 0
3 1 21 0
3 6 14 0
3 3 17 0
3 3 18 0
3 7 17 0
3 7 16 0
3 4 19 0
3 4 20 0
3 8 19 0
3 8 18 0
3 9 21 0
3 9 20 0
