ply
format ascii 1.0
comment VCGLIB generated
element vertex 252
property float x
property float y
property float z
property float nx
property float ny
property float nz
element face 500
property list uchar int vertex_indices
end_header
-0.01688545 0.03147592 -0.00233215 -0.09413016 0.9952601 0.02443186
0.03311046 -0.03632898 -0.05222349 0.2302043 -0.9666554 -0.112175
-0.01804768 -0.01753648 0.02808823 0.3373604 -0.6887483 0.6417271
0.00355026 -0.04436810 -0.04893842 -0.1067989 -0.8587988 0.5010576
0.03221838 -0.04395508 -0.04497694 0.1499584 -0.8679659 -0.4734424
0.00823791 -0.03970322 -0.04588391 -0.3307689 -0.9104115 0.2484812
0.06771098 -0.02319587 -0.04953968 0.2725896 -0.8854997 -0.3762781
0.08248710 -0.01773727 -0.02697005 0.5081839 -0.6926854 0.511797
0.06056617 0.01930380 0.01228702 0.5929184 0.6163175 0.5182669
-0.02455703 -0.03747871 -0.00993222 0.1249524 -0.9911734 -0.04429629
-0.05245030 -0.04480470 0.03614697 -0.2868754 -0.9234623 0.2547937
-0.03718025 0.02652842 0.06619218 0.7228334 -0.2911302 0.6267018
0.03663349 -0.00008843 0.03725809 0.1907111 0.1095418 0.9755152
0.01096751 -0.04727591 -0.00183337 -0.3321653 -0.7917516 0.5126361
-0.05432504 0.00993930 0.01625410 -0.7491907 0.6527285 -0.112511
-0.00416085 -0.03244761 -0.01440629 -0.2852256 -0.9473033 -0.1458181
-0.00110951 -0.03608854 -0.00298749 -0.5525292 -0.7793955 0.2953884
0.06230734 -0.01637951 0.01772926 0.7714877 -0.3355761 0.540551
-0.00616285 -0.03533874 0.00345869 -0.1376567 -0.9676018 0.2116537
-0.02306690 -0.03459629 0.00219791 0.2190721 -0.9402241 0.2607418
-0.01221898 -0.03196810 0.00988946 -0.02037373 -0.9136264 0.406044
-0.00137332 -0.00627543 0.03056086 -0.08244812 -0.2268593 0.9704314
0.02759933 -0.03527627 0.00653332 -0.0140024 -0.8225666 0.5684964
0.03998986 -0.03834376 0.00732644 0.1743467 -0.8544271 0.4894462
-0.03116352 -0.03676447 0.00044066 -0.1148049 -0.971471 0.2075182
0.03866739 -0.03104084 0.01477811 0.1128011 -0.8555309 0.5053147
-0.00079111 -0.02224765 0.02318363 -0.1067346 -0.6687581 0.7357787
-0.03378242 -0.03349869 -0.04891281 -0.4442181 -0.555198 0.703154
0.02020016 -0.03474378 0.01411669 0.005166559 -0.9431276 0.3323908
-0.02506173 -0.02662514 0.03099577 0.7517408 -0.633509 0.1831721
0.04528879 -0.03353416 -0.04677235 0.4587069 -0.8218855 -0.3377753
0.01683570 0.03625171 0.08436053 0.9116145 -0.3137476 0.2655588
-0.03997655 -0.04483796 0.02186303 0.5233771 -0.8199992 -0.2316847
-0.01201503 0.00902356 0.06698276 0.5339891 -0.7541701 0.3822083
-0.00437747 0.01054114 0.05832572 0.5373409 -0.2246418 -0.8128965
0.06572920 -0.02308216 -0.03714617 0.4196607 -0.9074819 0.01901436
0.08464330 -0.01552857 -0.03947637 0.8304916 -0.4609806 -0.3126989
0.05518765 -0.02721643 0.01397811 0.4353453 -0.7320921 0.5239424
-0.01884350 0.00137614 0.06232222 0.3770631 -0.8717918 0.3127335
0.03464045 -0.04588741 -0.03547561 0.2664146 -0.9299376 -0.2534548
0.04697354 -0.03865680 -0.03864242 0.5152048 -0.8048109 -0.294692
-0.03560256 -0.02702982 0.04261927 0.693214 -0.6849615 0.2242366
0.03352829 -0.04760746 -0.01828179 0.2878411 -0.956872 -0.03928721
0.06460917 -0.02788905 -0.01976309 0.7730367 -0.6305817 -0.06914529
0.00160381 0.01666172 0.08767906 0.3889672 -0.7932169 0.4685206
-0.02619310 -0.01838450 0.04289836 0.8245502 -0.491457 0.2803337
0.04772576 -0.04246407 -0.01623269 0.4641056 -0.8842905 0.05134685
0.01233061 0.01824949 0.06712153 0.7889691 -0.5902446 -0.1707017
0.05217658 -0.03781813 -0.00251174 0.3928098 -0.8780756 0.2732833
0.00656382 0.02488870 0.08356683 0.7041099 -0.7100298 0.00932786
0.04564734 -0.03925272 -0.00394877 0.4220456 -0.8851427 0.1959588
-0.02408098 -0.00306324 0.05255952 0.8312185 -0.4987424 0.2456251
-0.03409524 -0.03439784 0.02723179 0.7949176 -0.6046469 0.05008033
0.04195385 -0.04305605 -0.00385854 0.3968435 -0.8486196 0.3498001
0.06298108 -0.02971105 -0.00344993 0.7235907 -0.6608821 0.1991264
-0.04308754 -0.03695073 0.04548196 0.566637 -0.7449268 0.3521456
-0.00836889 0.00485611 0.06334065 0.4931915 -0.8633503 0.1067167
0.03266717 -0.02598982 0.02845129 0.1175657 -0.7665049 0.6313862
0.01588214 0.02901518 0.07643498 0.7158568 -0.6047993 0.348951
0.04356972 -0.03512519 -0.05907606 0.4319619 -0.8062167 -0.4042569
-0.03592094 0.01385919 0.05661436 0.8113868 0.147919 0.5654833
0.04217425 0.03106905 -0.05946123 0.3615163 0.6063902 -0.708235
0.07129085 0.00398189 -0.05451632 0.48416 0.254945 -0.8370138
-0.06337702 -0.03065334 0.01708714 -0.6309873 -0.1403108 -0.7629994
0.07280948 0.01563064 -0.04466238 0.4275543 0.797719 -0.4252549
0.04632298 0.03115082 -0.05166143 0.5270665 0.7171968 -0.4558834
-0.02998975 -0.02281790 0.05735567 0.66114 -0.5505388 0.5097067
0.08393972 0.00161801 -0.04528130 0.8201792 0.251032 -0.5140905
-0.03443004 0.03810629 0.06301271 0.9986325 -0.004456288 0.05208921
-0.06609969 -0.00188513 0.01920118 -0.8840067 0.2937914 -0.3636191
0.08893232 -0.00163326 -0.02819771 0.9797247 0.1218292 0.1590509
-0.05700034 0.00444689 0.05577638 -0.7361459 0.3869617 0.5552927
0.06568731 0.02061885 -0.02962917 0.8278332 0.531664 -0.1789568
-0.06053216 -0.00285806 0.01361272 -0.9765447 0.0766642 -0.2012041
-0.05462416 -0.01990097 0.01429308 -0.8703367 -0.3343383 -0.3615686
-0.03791933 0.06105657 0.06185128 0.7039307 0.365547 -0.6089802
0.07147693 -0.01549518 -0.00490105 0.9384198 -0.2956656 0.178746
-0.05844358 0.01383503 -0.00516144 -0.8919187 0.4464366 -0.07194076
0.07012708 0.01334644 -0.01647028 0.8957936 0.4443269 -0.0112895
0.07265857 0.00239434 -0.00471382 0.9867026 0.1157151 0.1141409
0.06818115 0.02029149 -0.00735134 0.8000668 0.5884037 0.1169367
-0.03674255 0.05361810 0.07475906 0.8804984 -0.2214698 0.4191344
-0.06646840 -0.03366245 0.02592368 -0.8741128 -0.4781662 -0.08534458
-0.04422883 -0.01850324 0.06133433 -0.09369664 -0.1778941 0.9795788
0.02142819 -0.01431011 0.03566659 -0.1125685 -0.2796888 0.9534686
-0.04698606 0.06292976 0.08661136 -0.477832 0.4253084 0.7686281
-0.01707416 -0.00485563 0.03447468 0.7138595 -0.1129875 0.6911139
0.02412777 -0.04681030 0.00140282 0.06747673 -0.8192852 0.569402
0.01225771 -0.02729318 0.02563308 -0.2185869 -0.7219603 0.6565006
0.00853748 0.02801973 0.09280151 0.03997423 0.2621958 0.9641864
-0.04530408 0.04057013 0.07657866 0.02562674 -0.401483 0.9155079
0.07325442 -0.01107211 -0.02203571 0.7804078 -0.3510283 0.5174387
0.04312278 -0.01713093 0.03309451 0.3818971 -0.3815078 0.8417876
0.05705256 0.00371631 0.02522487 0.6537901 0.1338898 0.7447362
-0.04576830 0.00682642 0.06063242 -0.04518371 -0.1123228 0.992644
-0.06042821 -0.00817489 0.05834415 -0.4268535 0.01785388 0.9041445
-0.03334064 -0.01111531 -0.05615813 -0.7089843 -0.03397242 0.7044055
-0.04231394 0.00216473 -0.05098943 -0.63673 -0.1986715 0.7450534
-0.01229330 -0.03407730 -0.05369540 -0.2261123 -0.9410253 0.2516833
-0.00048596 -0.04615519 -0.05926930 -0.3041786 -0.7086805 -0.6365905
0.01592713 -0.04896897 -0.01876309 -0.06010811 -0.9968495 -0.05175131
-0.02371193 -0.00734649 -0.04797572 -0.8358287 -0.2190745 0.5033853
-0.04856576 0.01211054 0.06132924 -0.7096547 -0.137502 0.6910018
-0.00860034 -0.02967939 -0.04562871 -0.1080404 -0.9239709 0.3668858
-0.05176731 -0.02896041 -0.00683957 -0.6952798 -0.7172514 -0.04622233
-0.00051782 -0.02698535 -0.03733090 -0.6082337 -0.792829 -0.03839263
-0.04408110 -0.03420410 -0.00605875 -0.4229724 -0.9028856 -0.07675976
-0.04960398 -0.03312729 0.05339374 -0.1558166 -0.6705599 0.7253073
-0.02031179 -0.02916532 -0.04451713 -0.4157197 -0.8348414 0.3608558
-0.01667123 0.01503799 0.07659403 -0.6576143 0.2264042 0.7185295
-0.02960711 -0.00157484 0.06180151 0.06772345 -0.4962347 0.8655429
0.00229414 -0.04618078 -0.01187813 -0.6719791 -0.7401567 -0.02474383
-0.01734689 -0.03395789 -0.01919353 -0.02261418 -0.9906887 -0.1342559
0.00965468 -0.03534201 0.00406488 -0.1794198 -0.8129874 0.5539495
0.01102937 -0.04473587 -0.03349813 -0.3201874 -0.9188296 -0.2307213
-0.05904751 -0.02285063 0.05448496 -0.531471 -0.3851292 0.7544629
-0.05643356 -0.02021162 -0.01399078 -0.8568813 -0.3554119 -0.3734123
-0.01730452 0.03594271 -0.06154828 -0.4691073 0.4487297 -0.7606446
0.02357531 0.02997579 0.01644899 0.04435105 0.8725977 0.486422
-0.06093726 -0.03163689 0.04407728 -0.869283 -0.361485 0.3371582
-0.03752607 -0.02027756 -0.05198293 -0.7783794 0.2653507 0.5689592
-0.01523049 0.03031370 -0.05058906 -0.6533886 0.4180382 0.6311318
-0.02585663 -0.01821698 -0.04587481 -0.843756 0.07944928 0.5308141
0.03813917 0.02441835 0.02366619 0.2499912 0.7745453 0.5810197
-0.00386542 0.03062421 0.01069672 -0.07992476 0.936045 0.3426833
-0.03166952 0.00730371 -0.04680051 -0.872532 0.229777 0.4311502
-0.06840184 -0.01138393 0.03036630 -0.9936163 0.02180151 0.110685
-0.04096427 0.06507540 0.06545294 -0.6764461 0.636726 -0.3701361
0.00885207 0.03261319 0.09039554 -0.3745735 0.6634321 0.6477289
0.00049667 0.03411583 -0.04499259 -0.7249494 0.6883237 0.0256698
-0.05003195 0.01380101 0.05316031 -0.9031163 0.4190559 -0.0936643
-0.06225671 0.00645793 0.03757534 -0.8305039 0.5307317 0.1690774
0.06876812 0.00282037 0.00944272 0.9036547 0.119906 0.4111336
-0.03880318 0.06979100 0.07928850 -0.5742682 0.8164585 -0.06009607
-0.05770954 -0.00307127 -0.01946736 -0.8484893 0.01434032 -0.5290182
-0.05304630 0.05596039 0.07962137 -0.9840579 0.1778349 0.002203484
-0.04488780 0.05669060 0.07372251 -0.7662215 0.5225883 -0.3739064
-0.06588432 -0.00814983 0.05453875 -0.8888103 0.0273157 0.4574605
-0.00542546 0.03406985 -0.00345014 -0.5259272 0.7699735 0.3613051
-0.06302330 0.00035179 -0.00431937 -0.9840812 0.07832244 -0.15953
-0.06293634 -0.01397987 -0.00125830 -0.9421288 -0.3344278 0.02348238
-0.06407441 -0.00479449 0.04130807 -0.9689733 0.1807993 0.1685298
-0.04739907 0.03477984 0.06111550 -0.9110054 0.287531 -0.2956267
-0.00682412 0.03860019 -0.05113846 -0.3119046 0.7644674 0.5641854
-0.01638199 0.01941023 0.02940831 0.02873391 0.6975681 0.7159421
0.02891429 0.01247896 0.03415421 0.05876094 0.5016215 0.8630891
-0.03505274 0.00466987 0.06032578 -0.2217985 0.3851708 0.8957952
0.07276480 0.00515594 -0.02423873 0.7502213 0.5504196 0.3663418
-0.00667816 0.02528077 0.01940948 -0.01317044 0.7443876 0.6676179
0.05069445 0.03112143 0.00246526 0.343593 0.860171 0.3768947
-0.04059738 0.01448340 -0.05449879 -0.6242251 0.582092 0.5210679
-0.02841992 0.00996415 0.05004078 0.3473064 0.9169347 -0.1964923
0.08354980 0.00326541 -0.02312429 0.4134821 0.2804268 0.8662525
0.01138583 0.04448507 -0.00077231 -0.06406482 0.6900843 0.7208879
-0.02376259 0.00361067 0.04673264 0.9253274 0.1056443 -0.3641545
0.03556867 0.04062508 -0.00228473 0.3571211 0.8105609 0.4641721
0.01375305 0.00870808 0.03318468 -0.1861564 0.2417527 0.9523137
0.03034788 0.03248701 0.00461436 0.1784734 0.7959373 0.578473
-0.00102935 0.01087468 0.02915709 0.1060299 0.3093229 0.9450275
-0.03589578 0.06947701 0.08507003 0.465566 0.6097702 0.641427
-0.02293761 0.01282418 0.03339447 0.4474815 0.6318594 0.6328619
0.01850136 0.01868154 0.02981123 -0.1155493 0.6640295 0.738724
0.04772740 0.01326140 0.02780198 0.424432 0.4460028 0.7879968
-0.02918561 0.02979529 0.00780193 -0.2431196 0.9492944 0.1993313
0.00827120 0.03714674 -0.05002910 -0.008301435 0.9881591 -0.1532077
-0.01855205 0.01935195 -0.04827616 -0.4993432 0.7544439 0.4259939
0.03838102 0.02900920 0.00935926 0.2255771 0.8840785 0.4092921
0.02271351 0.03506397 -0.05214376 0.1209292 0.9454499 -0.3024907
-0.04977217 0.02394311 -0.00570050 -0.6067862 0.7942704 0.03074253
0.05951088 0.01191480 -0.05612492 0.2589937 0.64318 -0.7205844
-0.00874771 0.02159257 0.06377129 -0.1209841 0.8612518 -0.4935668
-0.04535381 0.05026899 0.05508948 -0.5497562 0.3789959 -0.7443992
0.07883258 0.01355578 -0.03510561 0.482852 0.848806 0.2153655
0.04711569 0.03556170 -0.04166735 0.5403894 0.7958843 -0.2730339
-0.00549900 0.01834347 -0.04328187 -0.4675212 0.7458565 0.4744702
0.06158638 0.01662961 -0.04258394 0.5194909 0.8085298 -0.2764214
-0.03104252 0.01105445 -0.03589306 -0.6428815 0.4582868 -0.6137398
0.05634814 0.02944577 -0.03203057 0.7152484 0.6817774 -0.1536211
-0.02253036 0.01950823 -0.03876935 -0.4246189 0.8739475 -0.2364624
-0.00438715 0.04224625 -0.01947413 -0.8053576 0.5851043 -0.09514184
-0.02735860 0.02840163 0.01253183 -0.1425807 0.8991282 0.4138107
0.04698624 0.03760212 -0.02707186 0.4719568 0.8811731 -0.02812038
0.00578689 0.03075376 0.07898417 -0.4055901 0.877147 -0.257118
-0.02506171 0.02112473 -0.02827497 -0.2976257 0.8143073 -0.4983197
0.01949624 0.04405411 -0.03645066 0.1640088 0.935379 -0.3133166
-0.00951258 0.02831444 -0.01748383 -0.4774897 0.8211995 -0.3124659
0.00745997 0.04818970 -0.02617903 -0.2436083 0.9395691 -0.2405511
0.00106630 0.02720793 0.08430807 -0.6846759 0.6084151 0.4013104
-0.05051344 0.01342191 -0.02338922 -0.6618087 0.4577584 -0.5936888
0.01271762 0.03402010 0.00446644 -0.09705921 0.8039619 0.5867067
-0.01921988 0.01795623 0.06530467 -0.5450477 0.8370145 0.04826869
-0.03367198 0.01802233 0.02565042 -0.1007287 0.9019414 0.4199471
0.00124398 0.04755672 -0.00817264 -0.3780705 0.8854851 0.2701459
-0.03453793 0.02867597 -0.01962061 -0.2275916 0.8816592 -0.4133752
-0.05713646 0.01424834 0.02875724 -0.6224236 0.776032 -0.1017997
0.05125206 0.03355888 -0.00867268 0.4841216 0.8252385 0.2908739
-0.04474228 0.01743631 0.01899336 -0.3941916 0.902524 0.173388
0.01663513 0.03982137 0.08224648 -0.05731756 0.9889748 0.1365412
0.02392963 0.04602273 -0.01067776 0.2076748 0.9742339 0.08797473
0.01556776 0.03377522 -0.06148543 0.1208517 0.6375356 -0.7608832
-0.00807077 0.03967817 -0.06161081 -0.01157483 0.8320562 -0.5545706
-0.00170947 0.03057169 -0.06150474 0.04193569 -0.310559 -0.9496286
0.03777520 0.02347158 -0.06085330 -0.1370717 -0.1917259 -0.9718295
0.03360077 0.02066046 -0.05590426 -0.4125622 0.002782011 -0.9109252
-0.00128371 0.02714578 -0.05655361 0.11886 -0.6208494 -0.7748666
0.02781641 0.00285978 -0.06066590 -0.3389264 0.1283831 -0.9320121
-0.02160513 0.02298516 -0.06116354 -0.6847274 0.6806673 -0.2604615
-0.01157247 0.02563359 -0.06125307 0.366031 -0.3395 -0.8664646
0.04602386 0.01186441 -0.06037253 0.2863939 0.2185445 -0.9328541
-0.01192615 0.01727984 -0.05696339 0.3913946 0.02100507 -0.9199831
-0.01585598 0.01442168 -0.06143405 0.2149315 0.02269342 -0.9763654
0.03052323 -0.01105319 -0.06126741 -0.2407917 -0.1675112 -0.9560122
-0.04327696 0.01407493 -0.06174272 -0.3387204 0.2923416 -0.8943182
0.02097677 -0.00453840 -0.05688306 -0.2706689 -0.02873395 -0.9622436
0.04883876 -0.00342022 -0.05882610 -0.05936125 0.01551854 -0.998116
0.05616704 -0.00265325 -0.06087534 0.1392652 0.02546305 -0.9899278
0.07697263 -0.01270259 -0.05083097 0.5331096 -0.2473527 -0.8090801
-0.02153656 -0.00032965 -0.05928395 0.2016974 -0.1211263 -0.9719294
0.04965949 -0.01429571 -0.06028585 0.166984 -0.2318147 -0.9583206
-0.03579534 -0.02776397 0.01657832 0.3891335 -0.9049816 -0.1719981
-0.02489539 0.00422671 -0.06167724 0.0313043 -0.2549156 -0.9664565
0.04540954 -0.02512784 -0.06051634 0.08527654 0.02663065 -0.9960014
-0.00375999 -0.00384222 -0.06174379 0.3592324 -0.07071208 -0.9305654
-0.01023473 -0.00282835 -0.05881677 -0.1314964 -0.2331142 -0.9635177
-0.04641063 0.00133161 -0.06062813 -0.985269 -0.1609297 -0.05785096
0.00022151 -0.00189377 -0.05738864 0.388386 0.0606181 -0.9195008
-0.03542003 -0.03329954 -0.01902767 -0.220629 -0.8823947 -0.4155748
-0.02614590 -0.00987637 -0.06180937 0.08724844 0.01437252 -0.9960829
0.05910939 -0.02225659 -0.04949337 0.4629199 -0.7423367 -0.4843979
0.03586438 -0.02325665 -0.05572628 -0.2947862 -0.1169734 -0.9483767
-0.00453624 -0.02217510 -0.05707562 0.3463732 0.03439339 -0.9374661
-0.04877954 -0.02613334 0.01208131 -0.4440151 -0.8330564 -0.3299511
-0.00934469 -0.02894370 -0.06076626 0.0448228 -0.1550577 -0.9868881
-0.04386275 0.01730394 0.04654387 -0.1672695 0.9432709 -0.2868115
-0.02585866 -0.00623824 -0.03983315 -0.8156093 -0.2490831 -0.5222443
-0.06599498 -0.02120780 0.02431659 -0.9264813 -0.06112161 -0.3713442
-0.03782145 -0.01465524 -0.06097232 -0.6811554 0.06223448 -0.729489
-0.04069589 -0.02826024 -0.05973558 -0.9522582 -0.2820703 -0.1167936
0.00828596 -0.03169086 -0.05583208 -0.001902979 0.4763207 -0.8792696
0.02875401 -0.03728286 -0.05992211 0.185667 -0.7419686 -0.6442131
-0.02771224 -0.03865785 -0.06055812 -0.07607679 -0.7950447 -0.601761
-0.03569219 -0.02444336 -0.02914410 -0.2925651 -0.5433289 -0.7868922
-0.02333588 -0.02618495 -0.03100489 -0.6306186 -0.6502403 -0.4236834
-0.04862201 -0.02370966 -0.02273265 -0.5891442 -0.5737134 -0.5690011
-0.05351696 -0.04042651 0.01806293 -0.2364332 -0.6845399 -0.6895683
-0.04190987 -0.00595015 -0.03515430 -0.5046378 -0.07852517 -0.8597525
0.00395980 -0.03752944 -0.06068624 0.07010051 0.1934474 -0.9786031
0.01733529 0.03145494 0.07157298 0.9185338 0.08569965 -0.3859419
-0.03395158 0.07034068 0.07279519 0.5637323 0.7690573 -0.3012586
-0.01051216 0.01497526 0.05643034 0.222894 0.5055698 -0.8334971
-0.03652985 0.01907315 0.04850055 0.7368383 0.2904981 -0.6104753
0.00745533 0.02194308 0.06536460 0.08859598 0.5628979 -0.8217643
3 26 21 2 
3 141 137 71 
3 116 139 134 
3 156 84 12 
3 92 12 84 
3 10 55 107 
3 32 10 244 
3 94 83 146 
3 94 90 102 
3 87 53 22 
3 23 25 22 
3 219 231 24 
3 64 67 62 
3 156 12 145 
3 164 167 199 
3 45 29 86 
3 106 226 24 
3 50 48 23 
3 94 95 83 
3 156 21 84 
3 9 24 226 
3 112 9 226 
3 97 101 125 
3 88 21 26 
3 22 25 28 
3 35 7 91 
3 114 42 100 
3 53 50 23 
3 182 251 170 
3 24 19 219 
3 248 159 81 
3 92 57 37 
3 7 35 6 
3 28 57 88 
3 230 232 222 
3 24 9 19 
3 20 219 19 
3 28 25 57 
3 51 38 110 
3 112 19 9 
3 219 20 2 
3 38 44 110 
3 103 112 108 
3 112 20 19 
3 80 8 132 
3 125 234 176 
3 173 177 175 
3 112 18 20 
3 250 171 75 
3 98 103 108 
3 20 26 2 
3 112 15 18 
3 15 112 103 
3 39 42 114 
3 15 103 105 
3 15 16 18 
3 18 26 20 
3 4 39 114 
3 68 11 60 
3 171 127 75 
3 6 35 228 
3 88 26 18 
3 34 249 251 
3 151 233 250 
3 113 88 18 
3 16 113 18 
3 25 37 57 
3 92 84 57 
3 87 113 13 
3 23 37 25 
3 86 154 51 
3 81 75 248 
3 42 87 100 
3 53 23 22 
3 100 13 111 
3 22 113 87 
3 22 28 113 
3 3 1 5 
3 87 13 100 
3 1 4 5 
3 5 4 114 
3 42 50 53 
3 59 1 239 
3 47 58 33 
3 79 80 132 
3 107 55 66 
3 58 31 49 
3 32 52 55 
3 52 41 55 
3 43 76 54 
3 54 37 48 
3 219 52 32 
3 41 66 55 
3 46 40 43 
3 48 37 23 
3 29 41 52 
3 30 39 4 
3 35 43 40 
3 39 30 40 
3 219 29 52 
3 10 32 55 
3 98 108 27 
3 240 98 27 
3 172 70 67 
3 2 29 219 
3 49 44 33 
3 29 45 41 
3 41 45 66 
3 58 47 247 
3 54 48 46 
3 91 76 43 
3 228 30 59 
3 67 70 36 
3 43 54 46 
3 228 40 30 
3 30 4 1 
3 47 56 34 
3 84 21 88 
3 2 86 29 
3 47 33 56 
3 42 53 87 
3 251 47 34 
3 33 38 56 
3 6 36 7 
3 50 42 46 
3 31 44 49 
3 64 172 67 
3 36 6 216 
3 42 40 46 
3 39 40 42 
3 56 38 51 
3 40 228 35 
3 30 1 59 
3 33 58 49 
3 91 43 35 
3 150 206 212 
3 54 17 37 
3 154 56 51 
3 140 73 139 
3 1 3 239 
3 34 56 154 
3 174 165 178 
3 33 44 38 
3 95 71 137 
3 235 126 69 
3 81 11 68 
3 96 236 120 
3 109 146 110 
3 68 60 250 
3 177 72 175 
3 78 79 147 
3 151 170 249 
3 251 197 247 
3 69 126 131 
3 251 247 47 
3 75 68 250 
3 63 82 235 
3 139 73 77 
3 163 168 196 
3 101 122 234 
3 75 81 68 
3 78 80 79 
3 65 208 61 
3 65 175 208 
3 72 177 78 
3 232 98 240 
3 247 31 58 
3 137 115 95 
3 147 79 91 
3 72 147 175 
3 80 78 177 
3 200 117 143 
3 205 211 213 
3 17 54 76 
3 51 66 45 
3 126 141 131 
3 72 78 147 
3 91 79 76 
3 132 17 76 
3 36 70 7 
3 86 51 45 
3 216 67 36 
3 79 132 76 
3 152 7 70 
3 152 91 7 
3 147 91 152 
3 190 187 182 
3 11 94 60 
3 90 135 102 
3 107 83 115 
3 120 122 96 
3 71 95 94 
3 21 86 2 
3 110 83 66 
3 126 119 141 
3 69 131 194 
3 60 94 146 
3 86 21 158 
3 182 197 251 
3 31 197 89 
3 110 146 83 
3 132 93 17 
3 83 107 66 
3 85 90 81 
3 92 37 17 
3 160 86 158 
3 93 92 17 
3 159 85 81 
3 90 94 11 
3 93 12 92 
3 158 21 156 
3 162 12 93 
3 84 88 57 
3 90 11 81 
3 119 137 141 
3 85 135 90 
3 108 112 242 
3 15 111 16 
3 88 113 28 
3 44 31 89 
3 99 3 98 
3 106 24 231 
3 103 5 105 
3 15 105 111 
3 114 111 105 
3 13 113 16 
3 106 104 243 
3 122 108 242 
3 98 3 103 
3 103 3 5 
3 120 236 237 
3 241 234 242 
3 108 122 27 
3 226 106 243 
3 97 150 224 
3 10 82 244 
3 10 107 119 
3 248 75 127 
3 82 10 119 
3 133 159 248 
3 122 242 234 
3 249 34 154 
3 27 120 237 
3 13 16 111 
3 185 0 138 
3 96 97 224 
3 100 111 114 
3 115 137 119 
3 190 182 170 
3 116 104 140 
3 74 140 104 
3 109 110 44 
3 138 0 124 
3 104 106 231 
3 5 114 105 
3 157 118 166 
3 96 101 97 
3 151 160 233 
3 119 107 115 
3 104 231 74 
3 63 244 82 
3 131 130 233 
3 162 123 145 
3 85 136 135 
3 133 136 85 
3 46 48 50 
3 127 136 133 
3 89 187 44 
3 132 8 93 
3 136 142 135 
3 127 142 136 
3 171 142 127 
3 138 192 179 
3 115 83 95 
3 179 186 129 
3 142 130 135 
3 170 251 249 
3 129 185 179 
3 130 102 135 
3 146 109 190 
3 179 185 138 
3 130 142 171 
3 206 121 117 
3 129 174 185 
3 206 165 121 
3 165 174 121 
3 126 235 119 
3 122 101 96 
3 187 89 128 
3 234 125 101 
3 158 148 144 
3 166 8 149 
3 247 197 31 
3 116 140 139 
3 233 130 171 
3 188 77 168 
3 145 12 162 
3 145 123 118 
3 190 109 187 
3 8 123 162 
3 199 200 164 
3 235 82 119 
3 187 109 44 
3 140 74 73 
3 183 178 176 
3 27 122 120 
3 161 118 189 
3 160 154 86 
3 145 118 161 
3 14 196 168 
3 156 145 161 
3 14 168 77 
3 138 189 153 
3 149 157 166 
3 125 178 165 
3 178 125 176 
3 71 130 131 
3 188 134 77 
3 131 141 71 
3 73 14 77 
3 14 69 194 
3 97 125 150 
3 134 139 77 
3 14 73 69 
3 157 195 155 
3 202 201 199 
3 150 125 165 
3 93 8 162 
3 177 181 80 
3 158 156 148 
3 152 70 172 
3 60 151 250 
3 232 223 222 
3 189 157 153 
3 151 60 146 
3 161 189 148 
3 156 161 148 
3 153 192 138 
3 85 159 133 
3 157 155 153 
3 153 198 192 
3 191 180 196 
3 180 191 144 
3 189 124 148 
3 160 144 191 
3 117 121 143 
3 153 155 198 
3 66 51 110 
3 121 174 143 
3 80 149 8 
3 152 172 147 
3 174 129 143 
3 160 158 144 
3 148 180 144 
3 124 180 148 
3 193 163 0 
3 196 233 191 
3 194 131 233 
3 213 225 209 
3 130 71 102 
3 175 172 64 
3 62 169 64 
3 196 194 233 
3 168 163 193 
3 127 133 248 
3 169 175 64 
3 169 208 175 
3 190 170 151 
3 178 183 185 
3 80 195 149 
3 194 196 14 
3 154 160 151 
3 157 149 195 
3 176 193 183 
3 118 123 166 
3 173 181 177 
3 175 65 173 
3 206 150 165 
3 212 224 150 
3 94 102 71 
3 65 184 173 
3 181 155 195 
3 195 80 181 
3 173 184 181 
3 181 198 155 
3 167 184 65 
3 180 124 0 
3 180 0 163 
3 184 198 181 
3 233 160 191 
3 61 167 65 
3 151 146 190 
3 185 193 0 
3 184 186 198 
3 163 196 180 
3 61 199 167 
3 157 189 118 
3 166 123 8 
3 176 188 193 
3 186 192 198 
3 197 128 89 
3 164 184 167 
3 193 185 183 
3 174 178 185 
3 164 186 184 
3 188 168 193 
3 138 124 189 
3 197 187 128 
3 129 186 164 
3 182 187 197 
3 200 143 164 
3 179 192 186 
3 129 164 143 
3 229 230 213 
3 229 238 230 
3 215 218 214 
3 222 225 230 
3 216 6 218 
3 59 239 221 
3 201 202 204 
3 233 171 250 
3 73 235 69 
3 215 208 169 
3 202 205 203 
3 203 205 213 
3 208 205 202 
3 235 74 63 
3 218 228 221 
3 208 215 214 
3 232 99 98 
3 74 231 63 
3 246 239 99 
3 202 203 204 
3 62 216 215 
3 154 151 249 
3 62 215 169 
3 61 202 199 
3 6 228 218 
3 213 209 203 
3 134 243 116 
3 231 244 63 
3 221 228 59 
3 219 244 231 
3 104 116 243 
3 219 32 244 
3 188 245 134 
3 134 245 243 
3 208 214 205 
3 176 245 188 
3 62 67 216 
3 230 225 213 
3 99 239 3 
3 176 234 245 
3 239 246 221 
3 245 241 243 
3 246 99 232 
3 241 226 243 
3 216 218 215 
3 220 227 212 
3 210 212 206 
3 224 212 227 
3 241 242 226 
3 224 236 96 
3 241 245 234 
3 210 220 212 
3 210 206 117 
3 227 236 224 
3 207 210 117 
3 214 211 205 
3 242 112 226 
3 201 117 200 
3 227 232 236 
3 201 207 117 
3 240 237 236 
3 232 240 236 
3 207 209 210 
3 240 27 237 
3 209 207 204 
3 204 207 201 
3 220 223 217 
3 61 208 202 
3 220 222 223 
3 74 235 73 
3 221 229 211 
3 199 201 200 
3 222 220 210 
3 147 172 175 
3 229 213 211 
3 203 209 204 
3 232 230 246 
3 246 230 238 
3 221 246 238 
3 221 238 229 
3 227 220 217 
3 217 223 227 
3 232 227 223 
3 222 210 209 
3 209 225 222 
3 211 214 218 
3 218 221 211 
